<svg version="1.1" id="Layer_1" xmlns="http://www.w3.org/2000/svg" xmlns:xlink="http://www.w3.org/1999/xlink" x="0px" y="0px"
	 viewBox="0 0 388.5 310.2" style="enable-background:new 0 0 388.5 310.2;" xml:space="preserve">
<style type="text/css">
	.st0{fill:#320aff;}
</style>
<g>
	<g>
		<path class="st0" d="M267.6,77.7c2.4-5.7,8-11.6,16.9-18c7.7-5.5,12.7-9.4,14.9-11.8c3.5-3.7,5.2-7.8,5.2-12.2c0-3.6-1-6.6-3-9
			c-2-2.4-4.8-3.6-8.5-3.6c-5.1,0-8.5,1.9-10.4,5.7c-1.1,2.2-1.7,5.7-1.9,10.4h-16.2c0.3-7.2,1.6-13.1,3.9-17.5
			c4.5-8.5,12.4-12.7,23.7-12.7c9,0,16.1,2.5,21.4,7.5c5.3,5,8,11.6,8,19.8c0,6.3-1.9,11.9-5.6,16.7c-2.5,3.2-6.5,6.8-12.1,10.8
			l-6.7,4.7c-4.2,3-7,5.1-8.6,6.4c-1.5,1.3-2.8,2.9-3.9,4.6h37.1v14.7h-58.1C263.9,88.3,265.2,82.8,267.6,77.7z"/>
		<path class="st0" d="M346.2,68.4c0,3.4,0.5,6.2,1.6,8.4c2,4.1,5.7,6.1,11,6.1c3.3,0,6.1-1.1,8.6-3.4c2.4-2.2,3.7-5.5,3.7-9.7
			c0-5.6-2.3-9.3-6.8-11.2c-2.6-1.1-6.6-1.6-12.1-1.6V45.2c5.4-0.1,9.2-0.6,11.3-1.6c3.7-1.6,5.5-5,5.5-10c0-3.2-0.9-5.9-2.8-7.9
			c-1.9-2-4.5-3-8-3c-3.9,0-6.8,1.2-8.7,3.7c-1.8,2.5-2.7,5.8-2.7,10h-15.6c0.2-4.2,0.9-8.2,2.2-12c1.4-3.3,3.5-6.4,6.4-9.2
			c2.2-2,4.8-3.5,7.8-4.6c3-1.1,6.7-1.6,11.1-1.6c8.1,0,14.6,2.1,19.6,6.3c5,4.2,7.5,9.8,7.5,16.9c0,5-1.5,9.2-4.4,12.6
			c-1.9,2.1-3.8,3.6-5.9,4.4c1.5,0,3.7,1.3,6.6,3.9c4.3,3.9,6.4,9.3,6.4,16.2c0,7.2-2.5,13.5-7.5,18.9c-5,5.4-12.3,8.2-22.1,8.2
			c-12,0-20.4-3.9-25-11.8c-2.5-4.2-3.8-9.6-4.1-16.4H346.2z"/>
	</g>
	<g>

			<rect x="228.5" y="-10.2" transform="matrix(0.8852 -0.4652 0.4652 0.8852 -16.6562 118.5899)" class="st0" width="7" height="206.5"/>
	</g>
	<g>
		<path class="st0" d="M0,310.2V80.3h47.7V168h89.4V80.3h47.7v229.9h-47.7V207.6H47.7v102.6H0z"/>
	</g>
</g>
</svg>
